PathFileType	4	(X/Y/Z)	Patient4_TMGait_0pt5_01_right_12.trc.trc
DataRate	CameraRate	NumFrames	NumMarkers	Units	OrigDataRate	OrigDataStartFrame	OrigNumFrames
79.096045197740	79.096045197740	5	33	mm	79.096045197740	36	       141
Frame#	Time	L.ASIS			Sacral			L.Shoulder			Chest			R.Shoulder			Neck			R.ASIS			R.Thigh.Superior			R.Thigh.Lateral			R.Thigh.Inferior			R.Patella			L.Thigh.Superior			L.Thigh.Lateral			L.Thigh.Inferior			L.Patella			L.Shank.Superior			L.Shank.Lateral			L.Shank.Inferior			R.Shank.Superior			R.Shank.Lateral			R.Shank.Inferior			R.Heel			R.Midfoot.Superior			R.Midfoot.Lateral			R.Toe			L.Heel			L.Midfoot.Lateral			L.Midfoot.Superior			L.Toe			L.Elbow			L.Wrist			R.Elbow			R.Wrist			
		X1	Y1	Z1	X2	Y2	Z2	X3	Y3	Z3	X4	Y4	Z4	X5	Y5	Z5	X6	Y6	Z6	X7	Y7	Z7	X8	Y8	Z8	X9	Y9	Z9	X10	Y10	Z10	X11	Y11	Z11	X12	Y12	Z12	X13	Y13	Z13	X14	Y14	Z14	X15	Y15	Z15	X16	Y16	Z16	X17	Y17	Z17	X18	Y18	Z18	X19	Y19	Z19	X20	Y20	Z20	X21	Y21	Z21	X22	Y22	Z22	X23	Y23	Z23	X24	Y24	Z24	X25	Y25	Z25	X26	Y26	Z26	X27	Y27	Z27	X28	Y28	Z28	X29	Y29	Z29	X30	Y30	Z30	X31	Y31	Z31	X32	Y32	Z32	X33	Y33	Z33	

36	15.952500000000	794.697270388786	953.882355826690	328.884619987529	576.575937191291	998.846567998971	477.223050255118	750.321296089996	1434.112674755304	312.888557873864	845.115585742400	1359.288177416289	477.156014948541	752.020088434368	1425.526199689799	650.461529407763	742.814716102695	1491.614372709559	466.894547318917	800.981551815312	942.023078483294	603.497063083605	858.644761163069	748.955036816763	577.132337518974	786.746356568401	635.933575756742	636.556844075454	868.461309010444	588.393572886201	557.329514388125	875.937813144132	500.442174526076	564.614098524129	831.837224067909	732.650068211138	360.369180605535	743.885876927135	618.877299062170	296.236791914268	824.239126432624	534.242696959934	360.019726111815	815.020175656075	449.054567893080	360.609465154611	748.484324200562	390.352568808011	354.851017218094	613.106236168059	340.467258348044	299.917070682500	597.446442659619	216.594650708782	364.063076913418	854.841006938972	410.496607119024	574.810334237539	790.073005446145	302.916757206209	635.704078752410	841.962983125853	210.556675357915	577.613065513314	718.604538858447	42.190450440176	546.538112035957	888.504560529173	98.430212696534	586.502840254211	800.093672363935	36.092418569768	623.772502602810	1007.955749060452	47.412623756826	616.670295063378	405.868564657272	140.930195748080	392.543835954177	473.558099966687	97.394401528089	320.987462117204	573.639138513168	117.638241493972	349.383647930879	663.685758164810	32.201579446348	337.300130948048	756.306755940608	1084.781489800453	176.714882420825	947.975575217455	905.916632057502	163.038668546032	692.402146654858	1075.378061504518	746.258390014152	765.140463024619	824.844644000073	759.696448061750	
37	15.965142857143	793.900698120097	954.548992980025	330.324312127049	576.740230157902	999.606078666430	480.193889242727	749.756136290915	1434.786306991560	314.449667639758	845.711970546666	1359.803614796792	478.006350792964	754.069222417769	1426.104711358009	652.052338711424	743.427247503230	1492.247374009175	468.574119617964	801.921758189649	942.777224145396	604.765747483291	857.693170314054	748.260602016208	578.733699913507	784.550059267129	635.948643611917	637.945250415517	865.448166041965	587.813195397836	558.340938458590	872.053346525484	499.928953017604	565.173797103720	836.584256176135	735.704914537155	361.474919547776	752.965070267191	619.702188886937	296.736419734566	836.369480078316	536.914666605692	360.066662238349	828.407813651777	450.508125836309	360.018074494398	760.062527282348	391.957258111819	354.430949834384	622.679296217797	347.112321560023	299.933878807852	603.398265237368	223.283916295026	363.129494697633	850.548257716096	410.128569276320	575.360868754849	785.454914396849	302.784917662290	636.242985074499	836.600461846505	210.283816820350	577.686524676010	712.409063908294	42.179978967569	546.628358492889	882.388530519832	98.355253758345	586.556075301423	793.873914463020	36.114242368581	623.850096523606	1001.805987897291	47.120243325353	616.792525741517	409.166086525518	157.750156449638	391.434060893689	474.089327348111	109.364092699503	320.277402661826	575.389336917596	123.197658322922	348.653450991368	658.744070350388	31.150871888173	337.592349252340	751.221383347187	1084.357456883562	180.380508987200	934.197324352772	896.400958489778	166.539151022210	703.496557471944	1074.721346064428	749.946241629671	787.753935054191	827.719793539429	762.377178698432	
38	15.977785714286	793.031294920091	955.038888690017	331.754567098217	576.735901687591	1000.262554255173	483.074050914468	749.070941438585	1435.214542868890	315.746545386470	846.216754047757	1360.192620364621	478.610391994146	756.023709247324	1426.636647362658	653.343008515018	743.984020212193	1492.760175241571	469.934238423203	802.634797213654	943.390905977852	606.059889739541	856.597781632134	747.547448902442	580.355503580273	782.297402054043	635.914790815680	639.369959104428	862.386143216244	587.221608985659	559.405297430521	868.105868451344	499.409173464247	565.829439163117	841.155391066584	738.907999839062	362.560096681948	761.917368799573	620.909626183080	297.129686288257	848.165449702835	540.093111006902	360.161148437650	841.635352661509	452.573871774744	359.605013578183	771.724701481996	394.054815364644	354.097912199859	632.688278454385	353.881352900896	299.834068893449	609.949217131900	230.218098643336	362.227252921206	846.211867020279	409.735004240303	575.958490619047	780.803102988563	302.617210628179	636.834056962072	831.200901251406	209.987130805184	577.792777731175	706.165639902484	42.188904130254	546.713984805001	876.228236472734	98.261541937913	586.579089421195	787.603275294194	36.125426037955	623.925403417852	995.622259075205	46.736773618671	616.912454060818	413.587369040044	174.349783424218	390.166520064521	475.790245737190	121.524988676371	319.424770497457	577.966665175796	129.217333561676	347.925796316616	654.783158449914	30.265893256206	337.779546204713	746.267665270630	1083.756008793241	183.843973035636	919.837042634031	886.981125677318	170.089031877795	714.595950778014	1074.387558625017	753.529010866235	810.559603133999	831.572793529551	764.761334120598	
39	15.990428571429	792.101743821453	955.391081887014	333.173731895350	576.571958049169	1000.848981776448	485.826146264776	748.314860653294	1435.417494665071	316.776932384799	846.646283289155	1360.475145906195	478.980357163433	757.877051604180	1427.156188763033	654.328625222575	744.514406855655	1493.174177847504	470.964938417043	803.124877389864	943.869859189199	607.382243311306	855.401451927639	746.854081788444	581.950505067952	780.027352871945	635.865004901905	640.788264423911	859.319881264219	586.633392417176	560.490734282205	864.140965017340	498.894704288246	566.549198890932	845.435092325753	742.244673423004	363.690297789881	770.590734012538	622.526148086921	297.475123383594	859.436341145993	543.773640052048	360.381719446059	854.517102148557	455.252190376217	359.410523448572	783.303334284311	396.634384428281	353.892970131735	642.959977584970	360.595681249890	299.664880597456	617.074381115049	237.152754394222	361.394322710189	841.869790195583	409.329315527835	576.577233387118	776.146709809760	302.437664417889	637.463973316172	825.780760721688	209.679096551878	577.927431149882	699.878653039808	42.216249188595	546.803238794999	870.028651406387	98.158172843350	586.584666290741	781.289736202903	36.129866001693	624.005046054199	989.405522449969	46.299781994662	617.030448333075	419.096997383546	190.005484360341	388.822394248371	478.783394629430	133.336462533565	318.461076988232	581.525199333329	135.452570118725	347.184357066433	652.276263848738	29.671997949409	337.765288497344	741.455710372893	1082.985017025649	187.139475665427	904.909421565653	877.748394171659	173.682584851583	725.635535847189	1074.405680151722	756.944712058835	833.413216041309	836.476254840728	766.799999341672	
40	16.003071428571	791.110188846768	955.661194358436	334.571701962123	576.261684862666	1001.413221165542	488.422732821989	747.538910960489	1435.434219538475	317.550881380410	847.021185244005	1360.680973571185	479.137129036357	759.638299529404	1427.705908955336	655.021723540668	745.048387844199	1493.519363687453	471.672336754711	803.406267886669	944.230158903899	608.717704295214	854.130804858793	746.204210581717	583.472914927779	777.740244724783	635.828671848923	642.153912629998	856.253866484733	586.057678750907	561.559175976439	860.166588477609	498.395450252880	567.288984300617	849.328120414163	745.707650683627	364.931466203252	778.866185539170	624.563225769742	297.824152835735	870.039043568788	547.933754316269	360.787330114753	866.901585074285	458.526734493707	359.452325428638	794.672647177321	399.662215332340	353.835201445127	653.347009021318	367.052222125045	299.480975168808	624.800072428664	243.805402425715	360.658383607866	837.527077302716	408.926346746605	577.186316620910	771.486365898580	302.268017807087	638.110499428664	820.341629670960	209.375480747631	578.081675077199	693.554827563181	42.258701689325	546.900597501699	863.794718436324	98.055576179547	586.585176616611	774.943703183898	36.131544244529	624.092608892421	983.157895407452	45.850869418952	617.146990539930	425.681420006356	203.960640379836	387.505073475206	483.209339393911	144.210296263797	317.427632059912	586.270588650492	141.593344050029	346.406285113569	651.764391940982	29.471799831323	337.436525532505	736.777884085742	1082.076285413761	190.309030241222	889.432569907759	868.813813472563	177.317355554122	736.551645161873	1074.802342250110	760.134963086872	856.175142233525	842.500263721507	768.445283349011	
